<?xml version="1.0" ?><svg style="enable-background:new 0 0 512 512;" version="1.1" viewBox="0 0 512 512" xml:space="preserve" xmlns="http://www.w3.org/2000/svg" xmlns:xlink="http://www.w3.org/1999/xlink"><g id="_x34__x2C__Error_x2C__notice_x2C__warning_x2C__virus"><g id="XMLID_8588_"><path d="M460.49,325.13c14.43,23.16,15.16,52.36,1.92,76.2    C449.17,425.18,424,440,396.72,440H125.28c-27.28,0-52.45-14.82-65.69-38.67c-13.24-23.84-12.51-53.04,1.92-76.2l135.71-217.86    C211.04,85.1,234.88,71.86,261,71.86s49.96,13.24,63.78,35.41L460.49,325.13z" id="XMLID_8674_" style="fill:#FFFFFF;"/><circle cx="441" cy="110" id="XMLID_140_" r="35" style="fill:#9BC9FF;"/><circle cx="68.5" cy="202.5" id="XMLID_139_" r="27.5" style="fill:#9BC9FF;"/><path d="M422.3,348.93C434.8,369,420.37,395,396.72,395H125.28    c-23.65,0-38.08-26-25.58-46.07l135.72-217.87c11.8-18.93,39.36-18.93,51.16,0L422.3,348.93z" id="XMLID_8662_" style="fill:#9BC9FF;"/><path d="M275.14,330.86c3.62,3.62,5.86,8.62,5.86,14.14s-2.24,10.52-5.86,14.14    c-3.62,3.62-8.62,5.86-14.14,5.86c-11.05,0-20-8.95-20-20c0-5.52,2.24-10.52,5.86-14.14c3.62-3.62,8.62-5.86,14.14-5.86    C266.52,325,271.52,327.24,275.14,330.86z" id="XMLID_137_" style="fill:#FFFFFF;"/><path d="M281,195v85c0,11.05-8.95,20-20,20s-20-8.95-20-20v-85c0-11.05,8.95-20,20-20    c5.52,0,10.52,2.24,14.14,5.86C278.76,184.48,281,189.48,281,195z" id="XMLID_136_" style="fill:#FFFFFF;"/><circle cx="433.5" cy="202.5" id="XMLID_135_" r="7.5" style="fill:#1E81CE;"/><circle cx="363.5" cy="77.5" id="XMLID_134_" r="7.5" style="fill:#1E81CE;"/><circle cx="333.5" cy="477.5" id="XMLID_133_" r="7.5" style="fill:#1E81CE;"/><circle cx="178.5" cy="47.5" id="XMLID_132_" r="7.5" style="fill:#1E81CE;"/><circle cx="38.5" cy="447.5" id="XMLID_131_" r="7.5" style="fill:#1E81CE;"/><path d="M396.72,445H125.28c-29.092,0-55.938-15.804-70.062-41.243    c-14.124-25.433-13.339-56.573,2.048-81.271l135.71-217.86C207.718,80.978,233.147,66.86,261,66.86s53.282,14.118,68.023,37.765    l135.712,217.861c15.387,24.697,16.171,55.838,2.047,81.272C452.659,429.196,425.813,445,396.72,445z M261,76.86    c-24.377,0-46.634,12.357-59.537,33.055L65.754,327.773c-13.468,21.615-14.154,48.871-1.793,71.129    C76.322,421.169,99.818,435,125.28,435h271.44c25.462,0,48.957-13.831,61.318-36.097c12.362-22.259,11.675-49.515-1.792-71.13    l-135.711-217.86C307.634,89.217,285.377,76.86,261,76.86z" id="XMLID_8633_" style="fill:#1E81CE;"/><path d="M396.72,400H125.28c-12.947,0-24.43-6.759-30.716-18.079    c-6.287-11.321-5.954-24.644,0.892-35.635l135.72-217.87c6.461-10.366,17.61-16.554,29.824-16.554    c12.213,0,23.362,6.188,29.823,16.553l135.72,217.871c6.846,10.991,7.179,24.314,0.893,35.635    C421.15,393.241,409.668,400,396.72,400z M261,121.862c-8.738,0-16.714,4.427-21.337,11.843L103.944,351.573    c-4.897,7.863-5.136,17.394-0.638,25.493C107.804,385.165,116.018,390,125.28,390h271.44c9.262,0,17.476-4.835,21.973-12.934    c4.498-8.1,4.259-17.63-0.638-25.493l-135.72-217.87C277.714,126.29,269.738,121.862,261,121.862z" id="XMLID_8625_" style="fill:#1E81CE;"/><path d="M261,305c-13.785,0-25-11.215-25-25v-85c0-13.785,11.215-25,25-25    c6.674,0,12.952,2.601,17.675,7.324C283.399,182.048,286,188.326,286,195v85C286,293.785,274.785,305,261,305z M261,180    c-8.271,0-15,6.729-15,15v85c0,8.272,6.729,15,15,15s15-6.728,15-15v-85c0-4.004-1.561-7.77-4.396-10.605    C268.77,181.561,265.004,180,261,180z" id="XMLID_8617_" style="fill:#1E81CE;"/><path d="M261,370c-13.785,0-25-11.215-25-25c0-6.674,2.601-12.951,7.324-17.675    C248.048,322.602,254.325,320,261,320s12.952,2.602,17.676,7.325C283.399,332.049,286,338.326,286,345s-2.601,12.951-7.324,17.675    C273.952,367.398,267.675,370,261,370z M261,330c-4.004,0-7.77,1.561-10.605,4.396C247.561,337.23,246,340.997,246,345    c0,8.272,6.729,15,15,15c4.004,0,7.77-1.561,10.604-4.396C274.439,352.77,276,349.003,276,345s-1.561-7.77-4.396-10.604    C268.77,331.561,265.004,330,261,330z" id="XMLID_8609_" style="fill:#1E81CE;"/><path d="M441,150c-22.056,0-40-17.944-40-40s17.944-40,40-40s40,17.944,40,40    S463.056,150,441,150z M441,80c-16.542,0-30,13.458-30,30s13.458,30,30,30s30-13.458,30-30S457.542,80,441,80z" id="XMLID_8601_" style="fill:#1E81CE;"/><path d="M68.5,235C50.58,235,36,220.42,36,202.5S50.58,170,68.5,170s32.5,14.58,32.5,32.5    S86.42,235,68.5,235z M68.5,180C56.093,180,46,190.093,46,202.5S56.093,225,68.5,225S91,214.907,91,202.5S80.907,180,68.5,180z" id="XMLID_8590_" style="fill:#1E81CE;"/></g></g><g id="Layer_1"/></svg>